<svg xmlns="http://www.w3.org/2000/svg" xmlns:xlink="http://www.w3.org/1999/xlink" width="200" zoomAndPan="magnify" viewBox="0 0 150 74.999997" height="100" preserveAspectRatio="xMidYMid meet" version="1.0"><defs><g/></defs><g fill="#338cf1" fill-opacity="1"><g transform="translate(0.53461, 56.375288)"><g><path d="M 11.5 -1.296875 C 11.28125 -0.285156 10.945312 0.328125 10.5 0.546875 C 10.050781 0.773438 9.6875 0.679688 9.40625 0.265625 C 9.125 -0.140625 9.09375 -0.828125 9.3125 -1.796875 C 9.050781 -1.234375 8.617188 -0.921875 8.015625 -0.859375 C 7.421875 -0.804688 6.832031 -0.921875 6.25 -1.203125 C 5.675781 -1.484375 5.226562 -1.875 4.90625 -2.375 C 4.59375 -2.882812 4.566406 -3.441406 4.828125 -4.046875 C 4.222656 -4.234375 3.835938 -4.554688 3.671875 -5.015625 C 3.503906 -5.484375 3.503906 -5.953125 3.671875 -6.421875 C 3.835938 -6.890625 4.132812 -7.253906 4.5625 -7.515625 C 5 -7.773438 5.519531 -7.796875 6.125 -7.578125 C 6.125 -8.140625 6.347656 -8.5625 6.796875 -8.84375 C 7.242188 -9.125 7.753906 -9.265625 8.328125 -9.265625 C 8.910156 -9.265625 9.425781 -9.125 9.875 -8.84375 C 10.320312 -8.5625 10.546875 -8.140625 10.546875 -7.578125 C 10.660156 -8.140625 11.050781 -8.53125 11.71875 -8.75 C 12.394531 -8.976562 13.179688 -9.054688 14.078125 -8.984375 C 14.984375 -8.910156 15.789062 -8.703125 16.5 -8.359375 C 16.539062 -8.617188 16.65625 -8.828125 16.84375 -8.984375 C 16.65625 -9.316406 16.65625 -9.726562 16.84375 -10.21875 C 16.425781 -9.875 15.820312 -9.703125 15.03125 -9.703125 C 14.25 -9.703125 13.457031 -9.832031 12.65625 -10.09375 C 11.851562 -10.363281 11.207031 -10.722656 10.71875 -11.171875 C 10.226562 -11.617188 10.039062 -12.101562 10.15625 -12.625 C 9.894531 -11.875 9.519531 -11.441406 9.03125 -11.328125 C 8.550781 -11.222656 8.160156 -11.363281 7.859375 -11.75 C 7.554688 -12.144531 7.535156 -12.738281 7.796875 -13.53125 C 7.390625 -13.226562 6.914062 -13.234375 6.375 -13.546875 C 5.832031 -13.867188 5.285156 -14.347656 4.734375 -14.984375 C 4.191406 -15.617188 3.734375 -16.3125 3.359375 -17.0625 C 2.992188 -17.8125 2.769531 -18.503906 2.6875 -19.140625 C 2.613281 -19.773438 2.785156 -20.222656 3.203125 -20.484375 C 2.785156 -20.710938 2.601562 -21.125 2.65625 -21.71875 C 2.71875 -22.320312 2.925781 -22.941406 3.28125 -23.578125 C 3.632812 -24.210938 4.046875 -24.71875 4.515625 -25.09375 C 4.984375 -25.46875 5.425781 -25.539062 5.84375 -25.3125 C 5.46875 -25.945312 5.4375 -26.503906 5.75 -26.984375 C 6.070312 -27.472656 6.507812 -27.742188 7.0625 -27.796875 C 7.625 -27.859375 8.113281 -27.570312 8.53125 -26.9375 C 8.414062 -27.539062 8.59375 -28.066406 9.0625 -28.515625 C 9.53125 -28.960938 10.140625 -29.316406 10.890625 -29.578125 C 11.640625 -29.835938 12.414062 -29.976562 13.21875 -30 C 14.019531 -30.019531 14.71875 -29.894531 15.3125 -29.625 C 15.914062 -29.363281 16.273438 -28.9375 16.390625 -28.34375 C 16.460938 -29.050781 16.75 -29.546875 17.25 -29.828125 C 17.757812 -30.109375 18.300781 -30.210938 18.875 -30.140625 C 19.457031 -30.066406 19.953125 -29.820312 20.359375 -29.40625 C 20.773438 -29 20.929688 -28.457031 20.828125 -27.78125 C 21.046875 -28.488281 21.367188 -28.90625 21.796875 -29.03125 C 22.234375 -29.164062 22.597656 -29.066406 22.890625 -28.734375 C 23.191406 -28.398438 23.234375 -27.878906 23.015625 -27.171875 C 23.304688 -27.722656 23.769531 -28 24.40625 -28 C 25.050781 -28 25.679688 -27.832031 26.296875 -27.5 C 26.910156 -27.164062 27.375 -26.71875 27.6875 -26.15625 C 28.007812 -25.59375 28.003906 -25.03125 27.671875 -24.46875 C 28.523438 -24.207031 29.019531 -23.796875 29.15625 -23.234375 C 29.289062 -22.671875 29.140625 -22.191406 28.703125 -21.796875 C 28.273438 -21.410156 27.648438 -21.347656 26.828125 -21.609375 C 26.828125 -20.929688 26.5625 -20.429688 26.03125 -20.109375 C 25.507812 -19.796875 24.910156 -19.640625 24.234375 -19.640625 C 23.566406 -19.640625 22.976562 -19.796875 22.46875 -20.109375 C 21.96875 -20.429688 21.71875 -20.929688 21.71875 -21.609375 C 21.601562 -21.160156 21.273438 -20.859375 20.734375 -20.703125 C 20.191406 -20.554688 19.566406 -20.53125 18.859375 -20.625 C 18.148438 -20.71875 17.476562 -20.894531 16.84375 -21.15625 C 16.875 -20.664062 16.703125 -20.21875 16.328125 -19.8125 C 17.148438 -19.625 17.914062 -19.285156 18.625 -18.796875 C 19.34375 -18.316406 19.609375 -17.832031 19.421875 -17.34375 C 19.535156 -17.863281 19.851562 -18.21875 20.375 -18.40625 C 20.894531 -18.59375 21.453125 -18.617188 22.046875 -18.484375 C 22.648438 -18.359375 23.15625 -18.109375 23.5625 -17.734375 C 23.976562 -17.359375 24.128906 -16.910156 24.015625 -16.390625 C 24.285156 -16.691406 24.707031 -16.753906 25.28125 -16.578125 C 25.863281 -16.410156 26.484375 -16.09375 27.140625 -15.625 C 27.796875 -15.15625 28.398438 -14.628906 28.953125 -14.046875 C 29.515625 -13.472656 29.925781 -12.914062 30.1875 -12.375 C 30.457031 -11.832031 30.457031 -11.410156 30.1875 -11.109375 C 30.976562 -11.148438 31.5625 -10.984375 31.9375 -10.609375 C 32.3125 -10.234375 32.503906 -9.800781 32.515625 -9.3125 C 32.535156 -8.832031 32.367188 -8.40625 32.015625 -8.03125 C 31.660156 -7.65625 31.109375 -7.445312 30.359375 -7.40625 C 30.804688 -7.070312 30.984375 -6.601562 30.890625 -6 C 30.796875 -5.40625 30.535156 -4.828125 30.109375 -4.265625 C 29.679688 -3.703125 29.195312 -3.296875 28.65625 -3.046875 C 28.113281 -2.804688 27.597656 -2.859375 27.109375 -3.203125 C 27.410156 -2.523438 27.425781 -1.941406 27.15625 -1.453125 C 26.894531 -0.972656 26.503906 -0.617188 25.984375 -0.390625 C 25.460938 -0.171875 24.929688 -0.15625 24.390625 -0.34375 C 23.847656 -0.53125 23.441406 -0.941406 23.171875 -1.578125 C 23.253906 -0.898438 22.929688 -0.359375 22.203125 0.046875 C 21.472656 0.460938 20.507812 0.707031 19.3125 0.78125 C 18.113281 0.851562 16.828125 0.722656 15.453125 0.390625 C 14.085938 0.0546875 12.769531 -0.503906 11.5 -1.296875 Z M 11.5 -1.296875 "/></g></g></g><g fill="#338cf1" fill-opacity="1"><g transform="translate(31.178163, 56.375288)"><g><path d="M 3.8125 -1.0625 C 2.875 -1.101562 2.253906 -1.410156 1.953125 -1.984375 C 1.660156 -2.566406 1.679688 -3.128906 2.015625 -3.671875 C 2.359375 -4.210938 2.992188 -4.46875 3.921875 -4.4375 C 2.992188 -4.4375 2.367188 -4.660156 2.046875 -5.109375 C 1.734375 -5.554688 1.734375 -6.003906 2.046875 -6.453125 C 2.367188 -6.898438 2.992188 -7.125 3.921875 -7.125 C 3.253906 -7.125 2.742188 -7.382812 2.390625 -7.90625 C 2.035156 -8.4375 1.859375 -9.035156 1.859375 -9.703125 C 1.859375 -10.378906 2.035156 -10.976562 2.390625 -11.5 C 2.742188 -12.03125 3.253906 -12.296875 3.921875 -12.296875 C 3.253906 -12.296875 2.742188 -12.472656 2.390625 -12.828125 C 2.035156 -13.179688 1.859375 -13.597656 1.859375 -14.078125 C 1.859375 -14.566406 2.035156 -14.988281 2.390625 -15.34375 C 2.742188 -15.707031 3.253906 -15.890625 3.921875 -15.890625 C 3.441406 -15.890625 3.0625 -16.164062 2.78125 -16.71875 C 2.5 -17.28125 2.3125 -17.972656 2.21875 -18.796875 C 2.125 -19.617188 2.125 -20.441406 2.21875 -21.265625 C 2.3125 -22.085938 2.5 -22.78125 2.78125 -23.34375 C 3.0625 -23.90625 3.441406 -24.1875 3.921875 -24.1875 C 3.210938 -24.1875 2.671875 -24.410156 2.296875 -24.859375 C 1.921875 -25.304688 1.734375 -25.828125 1.734375 -26.421875 C 1.734375 -27.023438 1.921875 -27.550781 2.296875 -28 C 2.671875 -28.457031 3.210938 -28.6875 3.921875 -28.6875 C 3.140625 -28.6875 2.550781 -28.945312 2.15625 -29.46875 C 1.769531 -29.988281 1.578125 -30.582031 1.578125 -31.25 C 1.578125 -31.925781 1.769531 -32.523438 2.15625 -33.046875 C 2.550781 -33.578125 3.140625 -33.84375 3.921875 -33.84375 C 2.878906 -33.84375 2.179688 -34.101562 1.828125 -34.625 C 1.472656 -35.15625 1.472656 -35.679688 1.828125 -36.203125 C 2.179688 -36.722656 2.878906 -36.984375 3.921875 -36.984375 C 3.773438 -37.546875 3.914062 -38.03125 4.34375 -38.4375 C 4.78125 -38.851562 5.320312 -39.164062 5.96875 -39.375 C 6.625 -39.582031 7.242188 -39.617188 7.828125 -39.484375 C 8.410156 -39.347656 8.796875 -39.003906 8.984375 -38.453125 C 8.984375 -39.117188 9.234375 -39.628906 9.734375 -39.984375 C 10.242188 -40.335938 10.832031 -40.515625 11.5 -40.515625 C 12.175781 -40.515625 12.773438 -40.335938 13.296875 -39.984375 C 13.828125 -39.628906 14.09375 -39.117188 14.09375 -38.453125 C 14.644531 -38.523438 15.109375 -38.25 15.484375 -37.625 C 15.859375 -37.007812 16.109375 -36.269531 16.234375 -35.40625 C 16.367188 -34.550781 16.351562 -33.765625 16.1875 -33.046875 C 16.019531 -32.335938 15.65625 -31.945312 15.09375 -31.875 C 15.988281 -32.03125 16.6875 -31.742188 17.1875 -31.015625 C 17.695312 -30.285156 17.972656 -29.46875 18.015625 -28.5625 C 18.578125 -28.71875 19.128906 -28.726562 19.671875 -28.59375 C 20.210938 -28.46875 20.578125 -28.101562 20.765625 -27.5 C 20.691406 -28.101562 20.914062 -28.585938 21.4375 -28.953125 C 21.957031 -29.328125 22.582031 -29.5625 23.3125 -29.65625 C 24.050781 -29.75 24.707031 -29.679688 25.28125 -29.453125 C 25.863281 -29.234375 26.210938 -28.84375 26.328125 -28.28125 C 26.546875 -29.1875 26.925781 -29.722656 27.46875 -29.890625 C 28.007812 -30.054688 28.476562 -29.929688 28.875 -29.515625 C 29.269531 -29.109375 29.351562 -28.457031 29.125 -27.5625 C 29.570312 -28.007812 30.101562 -28.175781 30.71875 -28.0625 C 31.34375 -27.945312 31.914062 -27.65625 32.4375 -27.1875 C 32.957031 -26.71875 33.300781 -26.179688 33.46875 -25.578125 C 33.644531 -24.984375 33.523438 -24.445312 33.109375 -23.96875 C 33.859375 -24.1875 34.484375 -24.128906 34.984375 -23.796875 C 35.492188 -23.460938 35.851562 -22.976562 36.0625 -22.34375 C 36.269531 -21.707031 36.269531 -21.097656 36.0625 -20.515625 C 35.851562 -19.929688 35.375 -19.507812 34.625 -19.25 C 35.34375 -19.289062 35.882812 -18.945312 36.25 -18.21875 C 36.625 -17.488281 36.820312 -16.644531 36.84375 -15.6875 C 36.863281 -14.726562 36.703125 -13.882812 36.359375 -13.15625 C 36.023438 -12.425781 35.503906 -12.0625 34.796875 -12.0625 C 35.429688 -12.0625 35.898438 -11.734375 36.203125 -11.078125 C 36.503906 -10.429688 36.65625 -9.675781 36.65625 -8.8125 C 36.65625 -7.945312 36.503906 -7.1875 36.203125 -6.53125 C 35.898438 -5.882812 35.429688 -5.5625 34.796875 -5.5625 C 35.734375 -5.5625 36.359375 -5.296875 36.671875 -4.765625 C 36.992188 -4.242188 36.992188 -3.71875 36.671875 -3.1875 C 36.359375 -2.664062 35.734375 -2.40625 34.796875 -2.40625 C 34.941406 -1.625 34.742188 -0.976562 34.203125 -0.46875 C 33.660156 0.03125 32.992188 0.34375 32.203125 0.46875 C 31.421875 0.601562 30.703125 0.519531 30.046875 0.21875 C 29.398438 -0.0703125 29 -0.613281 28.84375 -1.40625 C 28.65625 -0.769531 28.242188 -0.382812 27.609375 -0.25 C 26.972656 -0.125 26.304688 -0.171875 25.609375 -0.390625 C 24.921875 -0.617188 24.363281 -0.960938 23.9375 -1.421875 C 23.507812 -1.890625 23.390625 -2.445312 23.578125 -3.09375 C 22.941406 -3.09375 22.460938 -3.34375 22.140625 -3.84375 C 21.828125 -4.351562 21.671875 -4.941406 21.671875 -5.609375 C 21.671875 -6.285156 21.828125 -6.882812 22.140625 -7.40625 C 22.460938 -7.925781 22.941406 -8.1875 23.578125 -8.1875 C 23.085938 -8.1875 22.691406 -8.523438 22.390625 -9.203125 C 22.085938 -9.878906 21.910156 -10.691406 21.859375 -11.640625 C 21.804688 -12.597656 21.863281 -13.503906 22.03125 -14.359375 C 22.195312 -15.222656 22.46875 -15.863281 22.84375 -16.28125 C 22.164062 -16.164062 21.472656 -16.414062 20.765625 -17.03125 C 20.054688 -17.644531 19.585938 -18.328125 19.359375 -19.078125 C 18.796875 -18.554688 18.144531 -18.351562 17.40625 -18.46875 C 17.582031 -18.050781 17.503906 -17.65625 17.171875 -17.28125 C 16.835938 -16.90625 16.332031 -16.796875 15.65625 -16.953125 C 16.144531 -16.691406 16.5 -16.15625 16.71875 -15.34375 C 16.945312 -14.539062 17.03125 -13.671875 16.96875 -12.734375 C 16.914062 -11.804688 16.726562 -10.992188 16.40625 -10.296875 C 16.09375 -9.609375 15.65625 -9.265625 15.09375 -9.265625 C 15.625 -9.265625 16.019531 -9.007812 16.28125 -8.5 C 16.539062 -8 16.671875 -7.410156 16.671875 -6.734375 C 16.671875 -6.054688 16.539062 -5.457031 16.28125 -4.9375 C 16.019531 -4.414062 15.625 -4.15625 15.09375 -4.15625 C 15.769531 -4.1875 16.21875 -3.945312 16.4375 -3.4375 C 16.664062 -2.9375 16.6875 -2.425781 16.5 -1.90625 C 16.3125 -1.382812 15.878906 -1.101562 15.203125 -1.0625 C 15.171875 -0.351562 14.78125 0.15625 14.03125 0.46875 C 13.28125 0.789062 12.414062 0.921875 11.4375 0.859375 C 10.46875 0.804688 9.617188 0.59375 8.890625 0.21875 C 8.160156 -0.15625 7.816406 -0.695312 7.859375 -1.40625 C 7.859375 -0.613281 7.660156 -0.0234375 7.265625 0.359375 C 6.867188 0.753906 6.414062 0.960938 5.90625 0.984375 C 5.40625 1.003906 4.945312 0.84375 4.53125 0.5 C 4.125 0.164062 3.882812 -0.351562 3.8125 -1.0625 Z M 3.8125 -1.0625 "/></g></g></g><g fill="#338cf1" fill-opacity="1"><g transform="translate(67.153534, 56.375288)"><g><path d="M 3.8125 -1.0625 C 2.875 -1.101562 2.253906 -1.410156 1.953125 -1.984375 C 1.660156 -2.566406 1.679688 -3.128906 2.015625 -3.671875 C 2.359375 -4.210938 2.992188 -4.46875 3.921875 -4.4375 C 2.992188 -4.4375 2.367188 -4.660156 2.046875 -5.109375 C 1.734375 -5.554688 1.734375 -6.003906 2.046875 -6.453125 C 2.367188 -6.898438 2.992188 -7.125 3.921875 -7.125 C 3.253906 -7.125 2.742188 -7.382812 2.390625 -7.90625 C 2.035156 -8.4375 1.859375 -9.035156 1.859375 -9.703125 C 1.859375 -10.378906 2.035156 -10.976562 2.390625 -11.5 C 2.742188 -12.03125 3.253906 -12.296875 3.921875 -12.296875 C 3.253906 -12.296875 2.742188 -12.472656 2.390625 -12.828125 C 2.035156 -13.179688 1.859375 -13.597656 1.859375 -14.078125 C 1.859375 -14.566406 2.035156 -14.988281 2.390625 -15.34375 C 2.742188 -15.707031 3.253906 -15.890625 3.921875 -15.890625 C 3.441406 -15.890625 3.0625 -16.164062 2.78125 -16.71875 C 2.5 -17.28125 2.3125 -17.972656 2.21875 -18.796875 C 2.125 -19.617188 2.125 -20.441406 2.21875 -21.265625 C 2.3125 -22.085938 2.5 -22.78125 2.78125 -23.34375 C 3.0625 -23.90625 3.441406 -24.1875 3.921875 -24.1875 C 3.210938 -24.1875 2.671875 -24.410156 2.296875 -24.859375 C 1.921875 -25.304688 1.734375 -25.828125 1.734375 -26.421875 C 1.734375 -27.023438 1.921875 -27.550781 2.296875 -28 C 2.671875 -28.457031 3.210938 -28.6875 3.921875 -28.6875 C 3.140625 -28.6875 2.550781 -28.945312 2.15625 -29.46875 C 1.769531 -29.988281 1.578125 -30.582031 1.578125 -31.25 C 1.578125 -31.925781 1.769531 -32.523438 2.15625 -33.046875 C 2.550781 -33.578125 3.140625 -33.84375 3.921875 -33.84375 C 2.878906 -33.84375 2.179688 -34.101562 1.828125 -34.625 C 1.472656 -35.15625 1.472656 -35.679688 1.828125 -36.203125 C 2.179688 -36.722656 2.878906 -36.984375 3.921875 -36.984375 C 3.773438 -37.546875 3.914062 -38.03125 4.34375 -38.4375 C 4.78125 -38.851562 5.320312 -39.164062 5.96875 -39.375 C 6.625 -39.582031 7.242188 -39.617188 7.828125 -39.484375 C 8.410156 -39.347656 8.796875 -39.003906 8.984375 -38.453125 C 8.984375 -39.117188 9.234375 -39.628906 9.734375 -39.984375 C 10.242188 -40.335938 10.832031 -40.515625 11.5 -40.515625 C 12.175781 -40.515625 12.773438 -40.335938 13.296875 -39.984375 C 13.828125 -39.628906 14.09375 -39.117188 14.09375 -38.453125 C 14.644531 -38.523438 15.109375 -38.25 15.484375 -37.625 C 15.859375 -37.007812 16.109375 -36.269531 16.234375 -35.40625 C 16.367188 -34.550781 16.351562 -33.765625 16.1875 -33.046875 C 16.019531 -32.335938 15.65625 -31.945312 15.09375 -31.875 C 15.988281 -32.03125 16.6875 -31.742188 17.1875 -31.015625 C 17.695312 -30.285156 17.972656 -29.46875 18.015625 -28.5625 C 18.578125 -28.71875 19.128906 -28.726562 19.671875 -28.59375 C 20.210938 -28.46875 20.578125 -28.101562 20.765625 -27.5 C 20.691406 -28.101562 20.914062 -28.585938 21.4375 -28.953125 C 21.957031 -29.328125 22.582031 -29.5625 23.3125 -29.65625 C 24.050781 -29.75 24.707031 -29.679688 25.28125 -29.453125 C 25.863281 -29.234375 26.210938 -28.84375 26.328125 -28.28125 C 26.546875 -29.1875 26.925781 -29.722656 27.46875 -29.890625 C 28.007812 -30.054688 28.476562 -29.929688 28.875 -29.515625 C 29.269531 -29.109375 29.351562 -28.457031 29.125 -27.5625 C 29.570312 -28.007812 30.101562 -28.175781 30.71875 -28.0625 C 31.34375 -27.945312 31.914062 -27.65625 32.4375 -27.1875 C 32.957031 -26.71875 33.300781 -26.179688 33.46875 -25.578125 C 33.644531 -24.984375 33.523438 -24.445312 33.109375 -23.96875 C 33.859375 -24.1875 34.484375 -24.128906 34.984375 -23.796875 C 35.492188 -23.460938 35.851562 -22.976562 36.0625 -22.34375 C 36.269531 -21.707031 36.269531 -21.097656 36.0625 -20.515625 C 35.851562 -19.929688 35.375 -19.507812 34.625 -19.25 C 35.34375 -19.289062 35.882812 -18.945312 36.25 -18.21875 C 36.625 -17.488281 36.820312 -16.644531 36.84375 -15.6875 C 36.863281 -14.726562 36.703125 -13.882812 36.359375 -13.15625 C 36.023438 -12.425781 35.503906 -12.0625 34.796875 -12.0625 C 35.429688 -12.0625 35.898438 -11.734375 36.203125 -11.078125 C 36.503906 -10.429688 36.65625 -9.675781 36.65625 -8.8125 C 36.65625 -7.945312 36.503906 -7.1875 36.203125 -6.53125 C 35.898438 -5.882812 35.429688 -5.5625 34.796875 -5.5625 C 35.734375 -5.5625 36.359375 -5.296875 36.671875 -4.765625 C 36.992188 -4.242188 36.992188 -3.71875 36.671875 -3.1875 C 36.359375 -2.664062 35.734375 -2.40625 34.796875 -2.40625 C 34.941406 -1.625 34.742188 -0.976562 34.203125 -0.46875 C 33.660156 0.03125 32.992188 0.34375 32.203125 0.46875 C 31.421875 0.601562 30.703125 0.519531 30.046875 0.21875 C 29.398438 -0.0703125 29 -0.613281 28.84375 -1.40625 C 28.65625 -0.769531 28.242188 -0.382812 27.609375 -0.25 C 26.972656 -0.125 26.304688 -0.171875 25.609375 -0.390625 C 24.921875 -0.617188 24.363281 -0.960938 23.9375 -1.421875 C 23.507812 -1.890625 23.390625 -2.445312 23.578125 -3.09375 C 22.941406 -3.09375 22.460938 -3.34375 22.140625 -3.84375 C 21.828125 -4.351562 21.671875 -4.941406 21.671875 -5.609375 C 21.671875 -6.285156 21.828125 -6.882812 22.140625 -7.40625 C 22.460938 -7.925781 22.941406 -8.1875 23.578125 -8.1875 C 23.085938 -8.1875 22.691406 -8.523438 22.390625 -9.203125 C 22.085938 -9.878906 21.910156 -10.691406 21.859375 -11.640625 C 21.804688 -12.597656 21.863281 -13.503906 22.03125 -14.359375 C 22.195312 -15.222656 22.46875 -15.863281 22.84375 -16.28125 C 22.164062 -16.164062 21.472656 -16.414062 20.765625 -17.03125 C 20.054688 -17.644531 19.585938 -18.328125 19.359375 -19.078125 C 18.796875 -18.554688 18.144531 -18.351562 17.40625 -18.46875 C 17.582031 -18.050781 17.503906 -17.65625 17.171875 -17.28125 C 16.835938 -16.90625 16.332031 -16.796875 15.65625 -16.953125 C 16.144531 -16.691406 16.5 -16.15625 16.71875 -15.34375 C 16.945312 -14.539062 17.03125 -13.671875 16.96875 -12.734375 C 16.914062 -11.804688 16.726562 -10.992188 16.40625 -10.296875 C 16.09375 -9.609375 15.65625 -9.265625 15.09375 -9.265625 C 15.625 -9.265625 16.019531 -9.007812 16.28125 -8.5 C 16.539062 -8 16.671875 -7.410156 16.671875 -6.734375 C 16.671875 -6.054688 16.539062 -5.457031 16.28125 -4.9375 C 16.019531 -4.414062 15.625 -4.15625 15.09375 -4.15625 C 15.769531 -4.1875 16.21875 -3.945312 16.4375 -3.4375 C 16.664062 -2.9375 16.6875 -2.425781 16.5 -1.90625 C 16.3125 -1.382812 15.878906 -1.101562 15.203125 -1.0625 C 15.171875 -0.351562 14.78125 0.15625 14.03125 0.46875 C 13.28125 0.789062 12.414062 0.921875 11.4375 0.859375 C 10.46875 0.804688 9.617188 0.59375 8.890625 0.21875 C 8.160156 -0.15625 7.816406 -0.695312 7.859375 -1.40625 C 7.859375 -0.613281 7.660156 -0.0234375 7.265625 0.359375 C 6.867188 0.753906 6.414062 0.960938 5.90625 0.984375 C 5.40625 1.003906 4.945312 0.84375 4.53125 0.5 C 4.125 0.164062 3.882812 -0.351562 3.8125 -1.0625 Z M 3.8125 -1.0625 "/></g></g></g><g fill="#338cf1" fill-opacity="1"><g transform="translate(103.128909, 56.375288)"><g><path d="M 3.765625 -4.828125 C 2.972656 -4.828125 2.378906 -5.144531 1.984375 -5.78125 C 1.597656 -6.414062 1.40625 -7.144531 1.40625 -7.96875 C 1.40625 -8.789062 1.597656 -9.507812 1.984375 -10.125 C 2.378906 -10.75 2.972656 -11.0625 3.765625 -11.0625 C 3.609375 -12.101562 3.726562 -12.828125 4.125 -13.234375 C 4.519531 -13.648438 4.953125 -13.707031 5.421875 -13.40625 C 5.890625 -13.113281 6.195312 -12.441406 6.34375 -11.390625 C 6.34375 -12.140625 6.601562 -12.691406 7.125 -13.046875 C 7.644531 -13.398438 8.257812 -13.578125 8.96875 -13.578125 C 9.6875 -13.578125 10.304688 -13.398438 10.828125 -13.046875 C 11.359375 -12.691406 11.625 -12.140625 11.625 -11.390625 C 12.144531 -12.097656 12.65625 -12.453125 13.15625 -12.453125 C 13.664062 -12.453125 14.015625 -12.207031 14.203125 -11.71875 C 14.390625 -11.238281 14.238281 -10.644531 13.75 -9.9375 C 14.382812 -9.9375 14.890625 -9.671875 15.265625 -9.140625 C 15.640625 -8.617188 15.890625 -7.972656 16.015625 -7.203125 C 16.148438 -6.441406 16.148438 -5.675781 16.015625 -4.90625 C 15.890625 -4.144531 15.640625 -3.5 15.265625 -2.96875 C 14.890625 -2.445312 14.382812 -2.1875 13.75 -2.1875 C 14.125 -1.25 14.21875 -0.566406 14.03125 -0.140625 C 13.84375 0.285156 13.523438 0.414062 13.078125 0.25 C 12.628906 0.0820312 12.21875 -0.46875 11.84375 -1.40625 C 11.84375 -0.769531 11.578125 -0.265625 11.046875 0.109375 C 10.523438 0.484375 9.863281 0.679688 9.0625 0.703125 C 8.257812 0.722656 7.453125 0.550781 6.640625 0.1875 C 5.835938 -0.164062 5.164062 -0.757812 4.625 -1.59375 C 4.082031 -2.4375 3.796875 -3.515625 3.765625 -4.828125 Z M 3.765625 -4.828125 "/></g></g></g><g fill="#338cf1" fill-opacity="1"><g transform="translate(118.169848, 56.375288)"><g><path d="M 3.765625 -4.828125 C 2.972656 -4.828125 2.378906 -5.144531 1.984375 -5.78125 C 1.597656 -6.414062 1.40625 -7.144531 1.40625 -7.96875 C 1.40625 -8.789062 1.597656 -9.507812 1.984375 -10.125 C 2.378906 -10.75 2.972656 -11.0625 3.765625 -11.0625 C 3.609375 -12.101562 3.726562 -12.828125 4.125 -13.234375 C 4.519531 -13.648438 4.953125 -13.707031 5.421875 -13.40625 C 5.890625 -13.113281 6.195312 -12.441406 6.34375 -11.390625 C 6.34375 -12.140625 6.601562 -12.691406 7.125 -13.046875 C 7.644531 -13.398438 8.257812 -13.578125 8.96875 -13.578125 C 9.6875 -13.578125 10.304688 -13.398438 10.828125 -13.046875 C 11.359375 -12.691406 11.625 -12.140625 11.625 -11.390625 C 12.144531 -12.097656 12.65625 -12.453125 13.15625 -12.453125 C 13.664062 -12.453125 14.015625 -12.207031 14.203125 -11.71875 C 14.390625 -11.238281 14.238281 -10.644531 13.75 -9.9375 C 14.382812 -9.9375 14.890625 -9.671875 15.265625 -9.140625 C 15.640625 -8.617188 15.890625 -7.972656 16.015625 -7.203125 C 16.148438 -6.441406 16.148438 -5.675781 16.015625 -4.90625 C 15.890625 -4.144531 15.640625 -3.5 15.265625 -2.96875 C 14.890625 -2.445312 14.382812 -2.1875 13.75 -2.1875 C 14.125 -1.25 14.21875 -0.566406 14.03125 -0.140625 C 13.84375 0.285156 13.523438 0.414062 13.078125 0.25 C 12.628906 0.0820312 12.21875 -0.46875 11.84375 -1.40625 C 11.84375 -0.769531 11.578125 -0.265625 11.046875 0.109375 C 10.523438 0.484375 9.863281 0.679688 9.0625 0.703125 C 8.257812 0.722656 7.453125 0.550781 6.640625 0.1875 C 5.835938 -0.164062 5.164062 -0.757812 4.625 -1.59375 C 4.082031 -2.4375 3.796875 -3.515625 3.765625 -4.828125 Z M 3.765625 -4.828125 "/></g></g></g><g fill="#338cf1" fill-opacity="1"><g transform="translate(133.210787, 56.375288)"><g><path d="M 3.765625 -4.828125 C 2.972656 -4.828125 2.378906 -5.144531 1.984375 -5.78125 C 1.597656 -6.414062 1.40625 -7.144531 1.40625 -7.96875 C 1.40625 -8.789062 1.597656 -9.507812 1.984375 -10.125 C 2.378906 -10.75 2.972656 -11.0625 3.765625 -11.0625 C 3.609375 -12.101562 3.726562 -12.828125 4.125 -13.234375 C 4.519531 -13.648438 4.953125 -13.707031 5.421875 -13.40625 C 5.890625 -13.113281 6.195312 -12.441406 6.34375 -11.390625 C 6.34375 -12.140625 6.601562 -12.691406 7.125 -13.046875 C 7.644531 -13.398438 8.257812 -13.578125 8.96875 -13.578125 C 9.6875 -13.578125 10.304688 -13.398438 10.828125 -13.046875 C 11.359375 -12.691406 11.625 -12.140625 11.625 -11.390625 C 12.144531 -12.097656 12.65625 -12.453125 13.15625 -12.453125 C 13.664062 -12.453125 14.015625 -12.207031 14.203125 -11.71875 C 14.390625 -11.238281 14.238281 -10.644531 13.75 -9.9375 C 14.382812 -9.9375 14.890625 -9.671875 15.265625 -9.140625 C 15.640625 -8.617188 15.890625 -7.972656 16.015625 -7.203125 C 16.148438 -6.441406 16.148438 -5.675781 16.015625 -4.90625 C 15.890625 -4.144531 15.640625 -3.5 15.265625 -2.96875 C 14.890625 -2.445312 14.382812 -2.1875 13.75 -2.1875 C 14.125 -1.25 14.21875 -0.566406 14.03125 -0.140625 C 13.84375 0.285156 13.523438 0.414062 13.078125 0.25 C 12.628906 0.0820312 12.21875 -0.46875 11.84375 -1.40625 C 11.84375 -0.769531 11.578125 -0.265625 11.046875 0.109375 C 10.523438 0.484375 9.863281 0.679688 9.0625 0.703125 C 8.257812 0.722656 7.453125 0.550781 6.640625 0.1875 C 5.835938 -0.164062 5.164062 -0.757812 4.625 -1.59375 C 4.082031 -2.4375 3.796875 -3.515625 3.765625 -4.828125 Z M 3.765625 -4.828125 "/></g></g></g></svg>